2.2Hzhigh_3min_grf.mot
version=1
nRows=15
nColumns 19
inDegrees=yes
endheader
time	1_ground_force_vx	1_ground_force_vy	1_ground_force_vz	1_ground_force_px	1_ground_force_py	1_ground_force_pz	1_ground_torque_x	1_ground_torque_y	1_ground_torque_z	2_ground_force_vx	2_ground_force_vy	2_ground_force_vz	2_ground_force_px	2_ground_force_py	2_ground_force_pz	2_ground_torque_x	2_ground_torque_y	2_ground_torque_z
            2.502500	            0.045190	            1.082389	           -0.178900	           -0.233013	            0.005581	           -0.255695	            0.119884	           -0.148018	            0.038580	           -8.920572	           17.663674	           -4.813679	           -0.055589	            0.005950	           -0.604398	           -0.022141	            0.043842	           -0.011948
            2.503000	            0.137203	            0.541217	           -0.089734	           -0.233013	            0.005581	           -0.255695	            0.097610	           -0.175788	            0.061243	           -8.919387	           17.296549	           -5.143490	           -0.047144	            0.005974	           -0.602492	            0.001757	           -0.003407	            0.001013
            2.503500	            0.045436	            0.361130	           -0.136136	           -0.233013	            0.005581	           -0.255695	            0.080628	           -0.221568	           -0.055603	           -8.683767	           16.928764	           -5.051047	           -0.051198	            0.005955	           -0.601412	            0.010060	           -0.019612	            0.005852
            2.504000	            0.182150	            1.083399	           -0.408521	           -0.233013	            0.005581	           -0.255695	            0.148298	           -0.101498	           -0.011821	           -8.639596	           17.665694	           -5.095367	           -0.061959	            0.005924	           -0.603628	            0.010460	           -0.021389	            0.006169
            2.504500	           -0.183456	            1.081362	            0.050949	           -0.233013	            0.005581	           -0.255695	            0.166359	            0.073736	            0.029642	           -8.826372	           17.481203	           -5.189801	           -0.050871	            0.005968	           -0.604834	            0.022283	           -0.044133	            0.013102
            2.505000	           -0.183650	            0.901490	           -0.041536	           -0.233013	            0.005581	           -0.255695	            0.132753	            0.046157	           -0.007983	           -8.543238	           16.929439	           -5.098035	           -0.047232	            0.005935	           -0.591756	            0.023498	           -0.046564	            0.014022
            2.505500	            0.365863	            1.082845	           -0.271408	           -0.233013	            0.005581	           -0.255695	            0.123576	           -0.045792	           -0.041298	           -8.684411	           17.112745	           -5.003462	           -0.048035	            0.005961	           -0.599945	            0.021732	           -0.042823	            0.012521
            2.506000	            0.090902	            1.803461	           -0.175922	           -0.233013	            0.005581	           -0.255695	            0.081961	           -0.074218	            0.078516	           -8.446900	           16.193351	           -5.147632	           -0.040920	            0.005941	           -0.586951	            0.017037	           -0.032662	            0.010383
            2.506500	            0.045810	            0.180275	            0.000659	           -0.233013	            0.005581	           -0.255695	            0.018747	           -0.212654	            0.019788	           -8.679135	           15.639893	           -5.102575	           -0.031015	            0.005948	           -0.579055	           -0.033569	            0.060492	           -0.019736
            2.507000	            0.090871	            0.722260	           -0.272271	           -0.233013	            0.005581	           -0.255695	            0.067533	           -0.175418	           -0.034632	           -8.728603	           16.375982	           -5.006071	           -0.040951	            0.005948	           -0.589026	           -0.009280	            0.017411	           -0.005322
            2.507500	           -0.046169	            0.541181	           -0.089279	           -0.233013	            0.005581	           -0.255695	            0.134879	           -0.055297	           -0.040142	           -8.590006	           16.928600	           -4.910303	           -0.046363	            0.005947	           -0.594297	           -0.000930	            0.001834	           -0.000532
            2.508000	           -0.000329	            1.802657	            0.007730	           -0.233013	            0.005581	           -0.255695	            0.205416	            0.064583	            0.037299	           -8.590752	           17.113418	           -5.097358	           -0.050368	            0.005952	           -0.599762	            0.024859	           -0.049520	            0.014750
            2.508500	           -0.000458	            1.262253	           -0.086301	           -0.233013	            0.005581	           -0.255695	            0.172178	            0.055249	            0.056159	           -8.871167	           16.928087	           -5.050968	           -0.043368	            0.005955	           -0.593406	           -0.023548	            0.044935	           -0.013408
            2.509000	            0.045825	            0.720875	            0.048834	           -0.233013	            0.005581	           -0.255695	            0.128626	           -0.045525	           -0.148970	           -8.495018	           16.560976	           -5.005513	           -0.040193	            0.005933	           -0.584045	            0.005731	           -0.011172	            0.003377
            2.509500	           -0.091964	            0.901507	           -0.041764	           -0.233013	            0.005581	           -0.255695	            0.114206	           -0.111265	            0.070490	           -8.586682	           16.007858	           -4.913588	           -0.032021	            0.005941	           -0.578081	           -0.036901	            0.068794	           -0.021116
